<svg xmlns="http://www.w3.org/2000/svg" width="512" height="275.693" viewBox="0 0 512 275.693"><path d="M137.844 78.77c-39.38 0-59.075 26.452-59.075 59.074s26.445 59.075 59.074 59.075c21.6 0 38.762-14.818 55.134-36.315 14.23 22.565 28.942 46.322 45 69.3-25.428 26.503-56.993 45.79-100.134 45.79C61.717 275.692 0 213.97 0 137.844S59.075 0 137.844 0c137.85 0 157.525 196.92 236.3 196.92 39.376 0 59.075-26.454 59.075-59.076 0-32.63-26.453-59.075-59.075-59.075-21.595 0-38.77 14.81-55.14 36.308-14.223-22.565-28.93-46.31-44.987-69.29C299.438 19.29 331.004 0 374.145 0 450.27 0 512 61.717 512 137.844s-59.08 137.85-137.855 137.85c-137.845 0-157.533-196.925-236.3-196.925z"/></svg>