<?xml version="1.0" encoding="utf-8"?>
<!-- Generator: Adobe Illustrator 15.0.2, SVG Export Plug-In . SVG Version: 6.00 Build 0)  -->
<!DOCTYPE svg PUBLIC "-//W3C//DTD SVG 1.1//EN" "http://www.w3.org/Graphics/SVG/1.1/DTD/svg11.dtd">
<svg version="1.1" id="Layer_1" xmlns="http://www.w3.org/2000/svg" xmlns:xlink="http://www.w3.org/1999/xlink" x="0px" y="0px"
	 width="512px" height="275.693px" viewBox="0 0 512 275.693" enable-background="new 0 0 512 275.693" xml:space="preserve">
<path d="M137.844,78.769c-39.381,0-59.075,26.453-59.075,59.075s26.446,59.075,59.075,59.075c21.601,0,38.762-14.817,55.134-36.314
	c14.229,22.565,28.942,46.322,44.999,69.301c-25.427,26.502-56.992,45.788-100.133,45.788C61.717,275.693,0,213.971,0,137.844
	S59.075,0,137.844,0c137.85,0,157.525,196.919,236.301,196.919c39.375,0,59.074-26.453,59.074-59.075
	c0-32.629-26.452-59.075-59.074-59.075c-21.595,0-38.769,14.812-55.141,36.309c-14.222-22.565-28.93-46.311-44.986-69.289
	C299.438,19.287,331.004,0,374.145,0C450.271,0,512,61.717,512,137.844s-59.081,137.85-137.855,137.85
	C236.3,275.693,216.612,78.769,137.844,78.769z"/>
</svg>
